<?xml version="1.0" encoding="utf-8"?>
<!-- Generator: Adobe Illustrator 27.1.0, SVG Export Plug-In . SVG Version: 6.00 Build 0)  -->

<svg version="1.1" id="Capa_1" xmlns="http://www.w3.org/2000/svg" xmlns:xlink="http://www.w3.org/1999/xlink" x="0px" y="0px"
	 viewBox="0 0 500 500" style="fill: --light-color-texto; enable-background:new 0 0 500 500;" xml:space="preserve">
<g>
	<g>
		<path d="M23.48,214.59V107.12h54.66c14.23,0,24.82,2.61,31.78,7.83c6.96,5.22,10.44,11.98,10.44,20.27
			c0,5.53-1.43,10.39-4.3,14.59c-2.87,4.2-6.96,7.47-12.28,9.83c-5.32,2.36-11.57,3.53-18.73,3.53l2.92-7.37
			c7.47,0,14.05,1.15,19.73,3.45s10.08,5.66,13.2,10.06c3.12,4.4,4.68,9.67,4.68,15.81c0,9.21-3.76,16.43-11.29,21.65
			c-7.52,5.22-18.55,7.83-33.09,7.83H23.48z M53.42,192.64h25.49c5.32,0,9.31-0.9,11.98-2.69c2.66-1.79,3.99-4.53,3.99-8.21
			s-1.33-6.42-3.99-8.21c-2.66-1.79-6.65-2.69-11.98-2.69H51.27V149.8H74.3c5.12,0,8.96-0.87,11.52-2.61
			c2.56-1.74,3.84-4.3,3.84-7.68c0-3.58-1.28-6.22-3.84-7.91c-2.56-1.69-6.4-2.53-11.52-2.53H53.42V192.64z"/>
		<path d="M154.45,122.16c-5.43,0-9.75-1.48-12.97-4.45c-3.22-2.97-4.84-6.65-4.84-11.05c0-4.4,1.61-8.06,4.84-10.98
			c3.22-2.92,7.55-4.38,12.97-4.38c5.32,0,9.62,1.38,12.9,4.15c3.27,2.76,4.91,6.29,4.91,10.59c0,4.61-1.61,8.44-4.84,11.52
			C164.2,120.63,159.87,122.16,154.45,122.16z M139.86,214.59v-83.37h29.17v83.37H139.86z"/>
		<path d="M187.92,214.59V100.67h29.17v44.68l-1.54,27.48l0.31,27.48v14.28H187.92z M240.27,215.97c-7.47,0-13.69-1.54-18.65-4.61
			c-4.97-3.07-8.67-7.78-11.13-14.12c-2.46-6.35-3.68-14.43-3.68-24.26c0-9.83,1.3-17.91,3.92-24.26
			c2.61-6.35,6.42-11.08,11.44-14.2c5.01-3.12,11.05-4.68,18.12-4.68c7.57,0,14.46,1.77,20.65,5.3c6.19,3.53,11.1,8.5,14.74,14.89
			c3.63,6.4,5.45,14.05,5.45,22.95c0,8.8-1.82,16.4-5.45,22.8c-3.63,6.4-8.55,11.36-14.74,14.89
			C254.73,214.21,247.84,215.97,240.27,215.97z M234.13,192.79c3.28,0,6.22-0.77,8.83-2.3c2.61-1.54,4.71-3.81,6.29-6.83
			c1.58-3.02,2.38-6.58,2.38-10.67c0-4.4-0.79-8.03-2.38-10.9c-1.59-2.86-3.69-5.07-6.29-6.6c-2.61-1.54-5.55-2.3-8.83-2.3
			c-3.28,0-6.22,0.77-8.83,2.3c-2.61,1.54-4.71,3.74-6.29,6.6c-1.59,2.87-2.38,6.5-2.38,10.9c0,4.1,0.79,7.65,2.38,10.67
			c1.59,3.02,3.68,5.3,6.29,6.83C227.91,192.02,230.85,192.79,234.13,192.79z"/>
		<path d="M294.62,214.59V100.67h29.17v113.92H294.62z"/>
		<path d="M357.26,122.16c-5.43,0-9.75-1.48-12.97-4.45c-3.22-2.97-4.84-6.65-4.84-11.05c0-4.4,1.61-8.06,4.84-10.98
			c3.22-2.92,7.55-4.38,12.97-4.38c5.32,0,9.62,1.38,12.9,4.15c3.27,2.76,4.91,6.29,4.91,10.59c0,4.61-1.61,8.44-4.84,11.52
			C367.01,120.63,362.69,122.16,357.26,122.16z M342.68,214.59v-83.37h29.17v83.37H342.68z"/>
		<path d="M432.5,215.97c-9.11,0-17.2-1.84-24.26-5.53s-12.62-8.78-16.66-15.28c-4.04-6.5-6.06-13.89-6.06-22.19
			c0-8.39,2.02-15.84,6.06-22.34c4.04-6.5,9.6-11.59,16.66-15.28s15.15-5.53,24.26-5.53c9.11,0,17.22,1.84,24.34,5.53
			c7.11,3.69,12.69,8.78,16.74,15.28c4.04,6.5,6.06,13.95,6.06,22.34c0,8.29-2.02,15.69-6.06,22.19
			c-4.04,6.5-9.62,11.59-16.74,15.28C449.71,214.13,441.6,215.97,432.5,215.97z M432.5,192.79c3.27,0,6.22-0.77,8.83-2.3
			c2.61-1.54,4.71-3.81,6.29-6.83c1.59-3.02,2.38-6.63,2.38-10.82c0-4.3-0.79-7.88-2.38-10.75c-1.59-2.86-3.68-5.07-6.29-6.6
			c-2.61-1.54-5.55-2.3-8.83-2.3c-3.28,0-6.22,0.77-8.83,2.3c-2.61,1.54-4.71,3.74-6.29,6.6c-1.59,2.87-2.38,6.45-2.38,10.75
			c0,4.2,0.79,7.81,2.38,10.82c1.58,3.02,3.68,5.3,6.29,6.83C426.28,192.02,429.22,192.79,432.5,192.79z"/>
	</g>
</g>
<g>
	<g>
		<path d="M193.09,367.72l-0.41-105.15l25.31-0.1l60.04,69.77l-11.95,0.05l-0.27-70l30.12-0.12l0.41,105.15l-25.31,0.1l-60.2-69.77
			l11.95-0.05l0.27,70L193.09,367.72z"/>
		<path d="M360.92,368.42c-10.04,0.04-18.77-1.75-26.18-5.38c-7.42-3.63-13.18-8.61-17.29-14.95c-4.12-6.34-6.19-13.52-6.22-21.53
			c-0.03-8.21,1.93-15.5,5.89-21.88c3.96-6.37,9.42-11.38,16.4-15.01c6.97-3.63,14.91-5.46,23.81-5.5
			c8.28-0.03,15.82,1.62,22.61,4.94c6.79,3.33,12.24,8.12,16.36,14.36c4.11,6.24,6.19,13.87,6.22,22.88c0,1-0.04,2.15-0.14,3.46
			c-0.1,1.3-0.2,2.5-0.3,3.61l-66.6,0.26l-0.06-15.02l50.92-0.2l-11.16,4.25c0.09-3.61-0.62-6.78-2.13-9.53
			c-1.51-2.75-3.57-4.87-6.16-6.36c-2.59-1.49-5.65-2.23-9.17-2.22c-3.62,0.01-6.78,0.78-9.46,2.29c-2.69,1.51-4.72,3.65-6.11,6.41
			c-1.39,2.76-2.07,5.99-2.06,9.7l0.02,4.36c0.02,4.01,0.88,7.46,2.6,10.35c1.72,2.9,4.18,5.12,7.4,6.66
			c3.21,1.54,7.05,2.3,11.5,2.28c4.24-0.02,7.81-0.61,10.71-1.77c2.89-1.16,5.78-2.95,8.67-5.37l15.43,15.71
			c-3.92,4.22-8.82,7.47-14.71,9.75C375.82,367.24,368.89,368.39,360.92,368.42z"/>
		<path d="M407.27,309.81l-0.08-21.33l61.01-0.24l0.08,21.33L407.27,309.81z M453.91,368.06c-10.76,0.04-19.16-2.5-25.18-7.64
			c-6.02-5.13-9.05-12.91-9.09-23.32l-0.27-70l29.5-0.11l0.27,69.55c0.01,3.11,0.82,5.46,2.43,7.05c1.61,1.6,3.76,2.39,6.45,2.38
			c3.42-0.01,6.41-0.88,8.99-2.59l7.53,19.8c-2.69,1.71-5.81,2.95-9.38,3.72C461.59,367.66,457.84,368.05,453.91,368.06z"/>
	</g>
</g>
<g>
	<g>
		<path d="M23.51,230.01l453.07-1.75l0.07,17.28l-453.07,1.75L23.51,230.01z"/>
	</g>
</g>
<path d="M85.04,288.27c10.34,0,20.45,0,30.88,0c0,18.88,0,37.62,0,56.51c-10.22,0-20.45,0-30.88,0
	C85.04,325.94,85.04,307.26,85.04,288.27z"/>
<path d="M126.22,344.72c0-18.85,0-37.48,0-56.35c10.27,0,20.47,0,30.91,0c0,18.76,0,37.45,0,56.35
	C146.86,344.72,136.59,344.72,126.22,344.72z"/>
<path d="M47.27,300.51c9.78,3.7,19.33,7.32,29.16,11.03c-5.34,14.25-10.62,28.33-15.98,42.62c-9.78-3.73-19.38-7.4-29.18-11.14
	C36.6,328.85,41.88,314.83,47.27,300.51z"/>
<path d="M116.23,355.52c0,5.21,1.67,13.57-0.33,18.44c-2.19,5.34-10.78,3.6-15.34,3.6c-4.45,0-12.69,1.71-15.1-3.16
	c-2.34-4.74-0.6-13.7-0.6-18.88C95.32,355.52,105.6,355.52,116.23,355.52z"/>
<path d="M157.26,355.49c0,5,1.83,13.93-0.62,18.44c-2.6,4.79-10.54,3.73-14.92,3.72c-4.33-0.01-12.16,1.47-14.83-2.84
	c-2.73-4.4-0.86-14.32-0.86-19.32C136.57,355.49,146.84,355.49,157.26,355.49z"/>
<path d="M115.98,277.19c-10.46,0-20.61,0-30.81,0c0-7.35-3.23-19.76,6.55-21.38c4.45-0.74,23.18-2.85,24.01,4.25
	C116.38,265.6,115.98,271.26,115.98,277.19z"/>
<path d="M126.24,277.23c0-4.96-1.58-12.75,0.45-17.43c2.38-5.48,10.28-4.27,15.07-4.27c4,0,12.26-1.27,14.66,3.06
	c2.5,4.52,0.61,13.57,0.61,18.64C146.79,277.23,136.65,277.23,126.24,277.23z"/>
<path d="M57.34,362.46c-1.46,3.89-2.68,11.54-6.29,14.03c-3.93,2.72-10.9-1.58-14.63-2.99c-3.62-1.38-10.77-2.6-12.49-6.54
	c-1.88-4.32,2.65-11.5,4.14-15.46C37.86,355.17,47.44,358.76,57.34,362.46z"/>
<path d="M79.64,303.05c-9.91-3.72-19.41-7.28-29.27-10.98c3.15-7.84,4.35-16.54,14.73-13.16c5.51,1.8,21.67,4.72,18.67,13.17
	C82.48,295.66,81.08,299.21,79.64,303.05z"/>
<path d="M84.99,353c0-2,0-3.71,0-5.67c10.4,0,20.69,0,31.12,0c0,1.92,0,3.75,0,5.67C105.71,353,95.47,353,84.99,353z"/>
<path d="M126.2,352.95c0-1.91,0-3.62,0-5.6c10.29,0,20.56,0,30.99,0c0,1.86,0,3.63,0,5.6C146.86,352.95,136.58,352.95,126.2,352.95z
	"/>
<path d="M85.05,280.06c10.38,0,20.55,0,30.93,0c0,1.75,0,3.43,0,5.34c-10.36,0-20.56,0-30.93,0
	C85.05,283.59,85.05,281.97,85.05,280.06z"/>
<path d="M126.35,280.04c10.46,0,20.49,0,30.72,0c0,1.79,0,3.47,0,5.37c-10.24,0-20.39,0-30.72,0
	C126.35,283.58,126.35,281.86,126.35,280.04z"/>
<path d="M28.92,349.23c0.56-1.42,1.01-2.53,1.55-3.89c9.75,3.67,19.31,7.27,29.11,10.95c-0.49,1.37-0.94,2.61-1.46,4.05
	C48.33,356.62,38.79,352.99,28.92,349.23z"/>
<path d="M78.71,305.26c-0.5,1.41-0.91,2.54-1.43,4c-9.75-3.66-19.35-7.27-29.13-10.95c0.49-1.34,0.9-2.47,1.45-3.97
	C59.34,297.99,68.94,301.59,78.71,305.26z"/>
</svg>
